# xmcd
# 
# Track frame offsets:
#     150
#     21083
#     43017
#     64837
#     80928
#     96648
#     125528
#     155398
#     185894
#     205506
#     233236
#     265557
#     306246
# 
# Disc length: 4423
# 
# Revision: 2
# Processed by: cddbd v1.5.2PL0 Copyright (c) Steve Scherf et al.
# Submitted via: BonkEnc v1.0
# 
DISCID=b711450d
DTITLE=Eric Clapton - Chronicles [CDTwo)
DYEAR=2007
DGENRE=Classic Rock
TTITLE0=Say What You Will
TTITLE1=I Ain't Gonna Stand For It
TTITLE2=So Tired
TTITLE3=Back Home
TTITLE4=If I Had Possession Over Judgement Day
TTITLE5=Old Love
TTITLE6=Bell Bottom Blues [Live]
TTITLE7=Badge [Live]
TTITLE8=Cocaine [Live]
TTITLE9=White Room [Live]
TTITLE10=Sunshine Of Your Love [Live]
TTITLE11=Layla [Live]
TTITLE12=Over The Rainbow [Live]
EXTD=Australasian Tour 2007 Limited Edition
EXTT0=
EXTT1=
EXTT2=
EXTT3=
EXTT4=
EXTT5=
EXTT6=
EXTT7=
EXTT8=
EXTT9=
EXTT10=
EXTT11=
EXTT12=
PLAYORDER=
